<svg width="40" height="40" viewBox="0 0 40 40" fill="none" xmlns="http://www.w3.org/2000/svg">
<g clip-path="url(#clip0)">
<path d="M21.0074 21.9954H4.9668C4.6432 21.9954 4.38086 22.2576 4.38086 22.5813C4.38086 22.905 4.6432 23.1672 4.9668 23.1672H21.0073C21.331 23.1672 21.5933 22.9049 21.5933 22.5813C21.5934 22.2576 21.331 21.9954 21.0074 21.9954Z" fill="#075985"/>
<path d="M21.0074 25.6931H4.9668C4.6432 25.6931 4.38086 25.9554 4.38086 26.2791C4.38086 26.6027 4.6432 26.865 4.9668 26.865H21.0073C21.331 26.865 21.5933 26.6027 21.5933 26.2791C21.5934 25.9554 21.331 25.6931 21.0074 25.6931Z" fill="#075985"/>
<path d="M12.9871 29.3906H4.9668C4.6432 29.3906 4.38086 29.653 4.38086 29.9766C4.38086 30.3002 4.6432 30.5625 4.9668 30.5625H12.9871C13.3107 30.5625 13.573 30.3002 13.573 29.9766C13.573 29.6529 13.3107 29.3906 12.9871 29.3906Z" fill="#075985"/>
<path d="M36.4227 14.6001H20.3821C20.0585 14.6001 19.7961 14.8624 19.7961 15.186C19.7961 15.5097 20.0585 15.772 20.3821 15.772H36.4227C36.7464 15.772 37.0086 15.5097 37.0086 15.186C37.0086 14.8624 36.7464 14.6001 36.4227 14.6001Z" fill="#075985"/>
<path d="M36.4227 18.2976H28.4024C28.0787 18.2976 27.8165 18.5599 27.8165 18.8835C27.8165 19.2072 28.0787 19.4695 28.4024 19.4695H36.4227C36.7464 19.4695 37.0087 19.2072 37.0087 18.8835C37.0087 18.5599 36.7464 18.2976 36.4227 18.2976Z" fill="#075985"/>
<path d="M3.62897 4.47412H15.348C15.6715 4.47412 15.9339 4.21186 15.9339 3.88818C15.9339 3.56451 15.6715 3.30225 15.348 3.30225H3.62897C3.30537 3.30225 3.04303 3.56451 3.04303 3.88818C3.04303 4.21186 3.30537 4.47412 3.62897 4.47412Z" fill="#075985"/>
<path d="M3.62897 7.40356H9.48842C9.81201 7.40356 10.0744 7.1413 10.0744 6.81763C10.0744 6.49396 9.81201 6.23169 9.48842 6.23169H3.62897C3.30537 6.23169 3.04303 6.49396 3.04303 6.81763C3.04303 7.1413 3.30537 7.40356 3.62897 7.40356Z" fill="#075985"/>
<path d="M22.1908 17.627H3.78308C1.69784 17.627 0.00128174 19.3234 0.00128174 21.4088V30.9164C0.00128174 33.0017 1.69777 34.6982 3.78308 34.6982H3.91519L3.15792 38.9028C3.08636 39.3003 3.27706 39.6962 3.63245 39.8879C3.99222 40.082 4.42714 40.0182 4.71628 39.7436L9.9012 34.8218C9.98519 34.7421 10.0951 34.6982 10.2109 34.6982H22.1907C24.276 34.6982 25.9725 33.0017 25.9725 30.9164V21.4088C25.9727 19.3234 24.2761 17.627 22.1908 17.627ZM24.8007 30.9164C24.8007 32.3555 23.6299 33.5263 22.1908 33.5263H10.211C9.79363 33.5263 9.39714 33.6845 9.09441 33.9719L4.4412 38.3889L5.0987 34.7384C5.21253 34.1064 4.72652 33.5263 4.08542 33.5263H3.78308C2.34402 33.5263 1.17323 32.3554 1.17323 30.9163V21.4088C1.17323 19.9697 2.34402 18.7988 3.78308 18.7988H22.1908C23.6299 18.7988 24.8007 19.9697 24.8007 21.4088V30.9164Z" fill="#075985"/>
<path d="M2.29984 10.4227H6.67015C6.67913 10.4227 6.68749 10.4275 6.69195 10.4352L8.55859 13.6578C8.75296 13.9935 9.1007 14.1939 9.48859 14.1939C9.87656 14.1939 10.2242 13.9935 10.4187 13.6578L12.2852 10.4352C12.2898 10.4274 12.2981 10.4227 12.3071 10.4227H16.6773C17.9281 10.4227 18.9456 9.40508 18.9456 8.1543V2.26828C18.9455 1.01758 17.928 0 16.6773 0H2.29984C1.04913 0 0.0315552 1.01758 0.0315552 2.26828V2.51586C0.0315552 2.83953 0.293899 3.1018 0.617493 3.1018C0.941086 3.1018 1.20343 2.83953 1.20343 2.51586V2.26828C1.20351 1.66367 1.69531 1.17188 2.29984 1.17188H16.6773C17.2818 1.17188 17.7737 1.66367 17.7737 2.2682V8.15422C17.7737 8.75875 17.2818 9.25062 16.6773 9.25062H12.307C11.8814 9.25062 11.4844 9.47945 11.2711 9.84773L9.48851 12.9252L7.70601 9.84773C7.49265 9.47945 7.09577 9.25062 6.67007 9.25062H2.29976C1.69523 9.25062 1.20343 8.75875 1.20343 8.15422V5.25492C1.20343 4.93125 0.941086 4.66898 0.617493 4.66898C0.293899 4.66898 0.0315552 4.93125 0.0315552 5.25492V8.1543C0.0315552 9.40508 1.04913 10.4227 2.29984 10.4227Z" fill="#075985"/>
<path d="M36.5752 10.9963H20.2297C18.3418 10.9963 16.8059 12.5323 16.8059 14.4201V15.4737C16.8059 15.7974 17.0683 16.0596 17.3918 16.0596C17.7154 16.0596 17.9778 15.7974 17.9778 15.4737V14.4201C17.9778 13.1784 18.9879 12.1682 20.2296 12.1682H36.5752C37.8169 12.1682 38.8271 13.1784 38.8271 14.4201V22.752C38.8271 23.9938 37.8169 25.0039 36.5752 25.0039H36.3067C35.6954 25.0039 35.2342 25.557 35.3423 26.1574L35.8906 29.2019L31.9041 25.4177C31.6232 25.1509 31.255 25.0039 30.8674 25.0039H28.1259C27.8022 25.0039 27.54 25.2662 27.54 25.5899C27.54 25.9135 27.8022 26.1758 28.1259 26.1758H30.8674C30.9533 26.1758 31.035 26.2084 31.0972 26.2675L35.7012 30.638C35.9812 30.9037 36.3988 30.9606 36.7401 30.7762C37.0808 30.5924 37.2634 30.2129 37.1947 29.8321L36.5363 26.1759H36.5751C38.463 26.1759 39.9989 24.6399 39.9989 22.7521V14.4201C39.999 12.5322 38.4631 10.9963 36.5752 10.9963Z" fill="#075985"/>
</g>
<defs>
<clipPath id="clip0">
<rect width="40" height="40" fill="white"/>
</clipPath>
</defs>
</svg>
