<svg width="40" height="40" viewBox="0 0 40 40" fill="none" xmlns="http://www.w3.org/2000/svg">
<g clip-path="url(#clip0)">
<path d="M37.2596 9.74723L20.3874 0.103008C20.1472 -0.0343359 19.8521 -0.0343359 19.612 0.103008L2.73979 9.74723C2.49643 9.88629 2.34619 10.1452 2.34619 10.4255V29.3274C2.34619 29.6046 2.49314 29.8611 2.73229 30.0014L19.6046 39.8928C19.7266 39.9643 19.8631 40 19.9997 40C20.1363 40 20.2728 39.9643 20.3949 39.8928L37.2671 30.0014C37.5063 29.8611 37.6532 29.6046 37.6532 29.3274V10.4254C37.6532 10.1451 37.503 9.88629 37.2596 9.74723ZM3.90869 11.7676L9.62783 15.0155L3.90869 26.1074V11.7676ZM23.5153 15.4879H27.9802L19.9997 29.3104L12.0192 15.4879H16.4841C16.9156 15.4879 17.2653 15.1381 17.2653 14.7066C17.2653 14.2751 16.9156 13.9254 16.4841 13.9254H12.1303L19.9997 2.18449L27.8692 13.9254H23.5153C23.0838 13.9254 22.7341 14.2751 22.7341 14.7066C22.7341 15.1381 23.0838 15.4879 23.5153 15.4879ZM18.569 29.9574L4.35307 28.6551L10.7048 16.3363L18.569 29.9574ZM29.2945 16.3362L35.6463 28.6551L21.4304 29.9574L29.2945 16.3362ZM29.5784 13.6689L22.5021 3.11152L35.2938 10.4232L29.5784 13.6689ZM10.421 13.669L4.70564 10.4232L17.4974 3.11152L10.421 13.669ZM19.2185 31.5859V37.8552L6.54424 30.4249L19.2185 31.5859ZM20.781 31.5859L33.4552 30.4249L20.781 37.8552V31.5859ZM30.3716 15.0154L36.0907 11.7675V26.1074L30.3716 15.0154Z" fill="#0369A1"/>
<path d="M20 15.4878C20.4315 15.4878 20.7812 15.138 20.7812 14.7065C20.7812 14.2751 20.4315 13.9253 20 13.9253C19.5685 13.9253 19.2188 14.2751 19.2188 14.7065C19.2188 15.138 19.5685 15.4878 20 15.4878Z" fill="#0369A1"/>
</g>
<defs>
<clipPath id="clip0">
<rect width="40" height="40" fill="white"/>
</clipPath>
</defs>
</svg>
