<svg width="40" height="40" viewBox="0 0 40 40" fill="none" xmlns="http://www.w3.org/2000/svg">
<path d="M39.1922 37.1359L2.86406 0.807813C2.74671 0.69069 2.58767 0.624938 2.42188 0.625H1.25C1.08424 0.625 0.925268 0.690848 0.808058 0.808058C0.690848 0.925269 0.625 1.08424 0.625 1.25V38.75C0.625 38.9158 0.690848 39.0747 0.808058 39.1919C0.925268 39.3092 1.08424 39.375 1.25 39.375H38.75C38.9158 39.375 39.0747 39.3092 39.1919 39.1919C39.3092 39.0747 39.375 38.9158 39.375 38.75V37.5781C39.3751 37.4123 39.3093 37.2533 39.1922 37.1359ZM38.125 38.125H35.625V36.875C35.625 36.7092 35.5592 36.5503 35.4419 36.4331C35.3247 36.3158 35.1658 36.25 35 36.25C34.8342 36.25 34.6753 36.3158 34.5581 36.4331C34.4408 36.5503 34.375 36.7092 34.375 36.875V38.125H31.875V37.5C31.875 37.3342 31.8092 37.1753 31.6919 37.0581C31.5747 36.9408 31.4158 36.875 31.25 36.875C31.0842 36.875 30.9253 36.9408 30.8081 37.0581C30.6908 37.1753 30.625 37.3342 30.625 37.5V38.125H28.125V36.875C28.125 36.7092 28.0592 36.5503 27.9419 36.4331C27.8247 36.3158 27.6658 36.25 27.5 36.25C27.3342 36.25 27.1753 36.3158 27.0581 36.4331C26.9408 36.5503 26.875 36.7092 26.875 36.875V38.125H24.375V37.5C24.375 37.3342 24.3092 37.1753 24.1919 37.0581C24.0747 36.9408 23.9158 36.875 23.75 36.875C23.5842 36.875 23.4253 36.9408 23.3081 37.0581C23.1908 37.1753 23.125 37.3342 23.125 37.5V38.125H20.625V36.875C20.625 36.7092 20.5592 36.5503 20.4419 36.4331C20.3247 36.3158 20.1658 36.25 20 36.25C19.8342 36.25 19.6753 36.3158 19.5581 36.4331C19.4408 36.5503 19.375 36.7092 19.375 36.875V38.125H16.875V37.5C16.875 37.3342 16.8092 37.1753 16.6919 37.0581C16.5747 36.9408 16.4158 36.875 16.25 36.875C16.0842 36.875 15.9253 36.9408 15.8081 37.0581C15.6908 37.1753 15.625 37.3342 15.625 37.5V38.125H13.125V36.875C13.125 36.7092 13.0592 36.5503 12.9419 36.4331C12.8247 36.3158 12.6658 36.25 12.5 36.25C12.3342 36.25 12.1753 36.3158 12.0581 36.4331C11.9408 36.5503 11.875 36.7092 11.875 36.875V38.125H9.375V37.5C9.375 37.3342 9.30915 37.1753 9.19194 37.0581C9.07473 36.9408 8.91576 36.875 8.75 36.875C8.58424 36.875 8.42527 36.9408 8.30806 37.0581C8.19085 37.1753 8.125 37.3342 8.125 37.5V38.125H5.625V36.875C5.625 36.7092 5.55915 36.5503 5.44194 36.4331C5.32473 36.3158 5.16576 36.25 5 36.25C4.83424 36.25 4.67527 36.3158 4.55806 36.4331C4.44085 36.5503 4.375 36.7092 4.375 36.875V38.125H1.875V35.625H3.125C3.29076 35.625 3.44973 35.5592 3.56694 35.4419C3.68415 35.3247 3.75 35.1658 3.75 35C3.75 34.8342 3.68415 34.6753 3.56694 34.5581C3.44973 34.4408 3.29076 34.375 3.125 34.375H1.875V31.875H2.5C2.66576 31.875 2.82473 31.8092 2.94194 31.6919C3.05915 31.5747 3.125 31.4158 3.125 31.25C3.125 31.0842 3.05915 30.9253 2.94194 30.8081C2.82473 30.6908 2.66576 30.625 2.5 30.625H1.875V28.125H3.125C3.29076 28.125 3.44973 28.0592 3.56694 27.9419C3.68415 27.8247 3.75 27.6658 3.75 27.5C3.75 27.3342 3.68415 27.1753 3.56694 27.0581C3.44973 26.9408 3.29076 26.875 3.125 26.875H1.875V24.375H2.5C2.66576 24.375 2.82473 24.3092 2.94194 24.1919C3.05915 24.0747 3.125 23.9158 3.125 23.75C3.125 23.5842 3.05915 23.4253 2.94194 23.3081C2.82473 23.1908 2.66576 23.125 2.5 23.125H1.875V20.625H3.125C3.29076 20.625 3.44973 20.5592 3.56694 20.4419C3.68415 20.3247 3.75 20.1658 3.75 20C3.75 19.8342 3.68415 19.6753 3.56694 19.5581C3.44973 19.4408 3.29076 19.375 3.125 19.375H1.875V16.875H2.5C2.66576 16.875 2.82473 16.8092 2.94194 16.6919C3.05915 16.5747 3.125 16.4158 3.125 16.25C3.125 16.0842 3.05915 15.9253 2.94194 15.8081C2.82473 15.6908 2.66576 15.625 2.5 15.625H1.875V13.125H3.125C3.29076 13.125 3.44973 13.0592 3.56694 12.9419C3.68415 12.8247 3.75 12.6658 3.75 12.5C3.75 12.3342 3.68415 12.1753 3.56694 12.0581C3.44973 11.9408 3.29076 11.875 3.125 11.875H1.875V9.375H2.5C2.66576 9.375 2.82473 9.30915 2.94194 9.19194C3.05915 9.07473 3.125 8.91576 3.125 8.75C3.125 8.58424 3.05915 8.42527 2.94194 8.30806C2.82473 8.19085 2.66576 8.125 2.5 8.125H1.875V5.625H3.125C3.29076 5.625 3.44973 5.55915 3.56694 5.44194C3.68415 5.32473 3.75 5.16576 3.75 5C3.75 4.83424 3.68415 4.67527 3.56694 4.55806C3.44973 4.44085 3.29076 4.375 3.125 4.375H1.875V1.875H2.16328L38.125 37.8367V38.125Z" fill="#075985"/>
<path d="M8.75 31.875H22.5C22.6236 31.875 22.7444 31.8384 22.8472 31.7697C22.95 31.701 23.0301 31.6034 23.0774 31.4892C23.1247 31.375 23.1371 31.2493 23.113 31.1281C23.0889 31.0068 23.0294 30.8955 22.9419 30.8081L9.19195 17.0581C9.10454 16.9707 8.99318 16.9111 8.87194 16.887C8.7507 16.8629 8.62503 16.8753 8.51082 16.9226C8.39661 16.9699 8.299 17.05 8.23032 17.1528C8.16165 17.2556 8.125 17.3764 8.125 17.5V31.25C8.125 31.4158 8.19085 31.5748 8.30806 31.692C8.42527 31.8092 8.58424 31.875 8.75 31.875ZM9.375 19.0089L20.9911 30.625H9.375V19.0089Z" fill="#075985"/>
<path d="M38.5711 21.7587L18.2414 1.42901C18.1242 1.31189 17.9653 1.24609 17.7996 1.24609C17.6339 1.24609 17.475 1.31189 17.3578 1.42901L12.0539 6.73291C11.9368 6.85011 11.871 7.00902 11.871 7.17471C11.871 7.3404 11.9368 7.49931 12.0539 7.61651L32.3836 27.9462C32.5008 28.0633 32.6597 28.1291 32.8254 28.1291C32.9911 28.1291 33.15 28.0633 33.2672 27.9462L38.5711 22.6423C38.6882 22.5251 38.754 22.3662 38.754 22.2005C38.754 22.0348 38.6882 21.8759 38.5711 21.7587ZM32.8258 26.6204L32.3836 26.1782L32.8258 25.736C32.9429 25.6188 33.0087 25.4597 33.0086 25.294C33.0086 25.1282 32.9426 24.9692 32.8254 24.8521C32.7673 24.794 32.6984 24.748 32.6225 24.7166C32.5467 24.6853 32.4654 24.6691 32.3833 24.6692C32.2175 24.6692 32.0586 24.7352 31.9414 24.8524L31.5 25.2939L30.6156 24.4103L31.9414 23.0845C32.0536 22.9663 32.1153 22.809 32.1132 22.646C32.1111 22.483 32.0455 22.3273 31.9302 22.2121C31.815 22.0968 31.6593 22.0311 31.4963 22.029C31.3333 22.027 31.176 22.0886 31.0578 22.2009L29.732 23.5267L28.8476 22.6423L29.2898 22.2009C29.4071 22.0837 29.473 21.9248 29.4731 21.759C29.4732 21.5932 29.4074 21.4342 29.2902 21.3169C29.173 21.1996 29.0141 21.1337 28.8483 21.1336C28.6825 21.1336 28.5235 21.1993 28.4062 21.3165L27.964 21.7587L27.0804 20.8751L28.4062 19.5493C28.4643 19.4912 28.5104 19.4223 28.5418 19.3464C28.5732 19.2706 28.5894 19.1893 28.5894 19.1071C28.5894 19.025 28.5732 18.9437 28.5418 18.8678C28.5104 18.792 28.4643 18.723 28.4062 18.6649C28.3482 18.6069 28.2792 18.5608 28.2034 18.5294C28.1275 18.498 28.0462 18.4818 27.964 18.4818C27.8819 18.4818 27.8006 18.498 27.7247 18.5294C27.6489 18.5608 27.5799 18.6069 27.5219 18.6649L26.1961 19.9907L25.3125 19.1071L25.7547 18.6649C25.8718 18.5477 25.9376 18.3887 25.9375 18.2229C25.9375 18.0571 25.8716 17.8981 25.7543 17.781C25.637 17.6638 25.478 17.598 25.3122 17.5981C25.1464 17.5982 24.9875 17.6641 24.8703 17.7814L24.4289 18.2228L23.5445 17.3392L24.8703 16.0134C24.9826 15.8952 25.0442 15.7379 25.0421 15.5749C25.04 15.4119 24.9744 15.2562 24.8591 15.141C24.7439 15.0257 24.5882 14.96 24.4252 14.958C24.2622 14.9559 24.1049 15.0175 23.9867 15.1298L22.6609 16.4556L21.7773 15.5712L22.2187 15.1298C22.2768 15.0718 22.3229 15.0029 22.3543 14.9271C22.3858 14.8512 22.402 14.77 22.402 14.6879C22.402 14.6058 22.3859 14.5245 22.3545 14.4487C22.3231 14.3728 22.2771 14.3039 22.2191 14.2458C22.1611 14.1877 22.0922 14.1417 22.0164 14.1102C21.9406 14.0788 21.8593 14.0626 21.7772 14.0625C21.6951 14.0625 21.6138 14.0786 21.538 14.11C21.4621 14.1414 21.3932 14.1874 21.3351 14.2454L20.8929 14.6876L20.0094 13.804L21.3351 12.4782C21.4524 12.361 21.5183 12.2019 21.5183 12.036C21.5183 11.8702 21.4524 11.7111 21.3351 11.5939C21.2179 11.4766 21.0588 11.4107 20.8929 11.4107C20.7271 11.4107 20.568 11.4766 20.4508 11.5939L19.125 12.9196L18.2414 12.036L18.6836 11.5939C18.8007 11.4766 18.8665 11.3176 18.8665 11.1518C18.8664 10.986 18.8005 10.827 18.6832 10.7099C18.6251 10.6518 18.5562 10.6058 18.4803 10.5745C18.4045 10.5431 18.3232 10.5269 18.2411 10.527C18.0753 10.5271 17.9164 10.593 17.7992 10.7103L17.3578 11.1517L16.4734 10.2681L17.7992 8.94229C17.9115 8.82412 17.9731 8.66678 17.971 8.50381C17.9689 8.34083 17.9033 8.18512 17.788 8.06986C17.6728 7.95461 17.5171 7.88894 17.3541 7.88686C17.1911 7.88477 17.0338 7.94643 16.9156 8.05869L15.5898 9.38448L14.7062 8.5001L15.1476 8.05869C15.2057 8.00068 15.2518 7.93179 15.2832 7.85597C15.3147 7.78014 15.3309 7.69887 15.3309 7.61678C15.3309 7.5347 15.3148 7.45341 15.2834 7.37756C15.2521 7.30171 15.206 7.23278 15.148 7.17471C15.09 7.11664 15.0211 7.07057 14.9453 7.03912C14.8695 7.00768 14.7882 6.99147 14.7061 6.99144C14.624 6.9914 14.5427 7.00753 14.4669 7.03891C14.391 7.07029 14.3221 7.1163 14.264 7.17432L13.8219 7.61651L13.3804 7.17432L16.4734 4.08135L35.9187 23.5267L32.8258 26.6204ZM36.8031 22.6423L17.3578 3.19698L17.7992 2.75479L37.2445 22.2009L36.8031 22.6423Z" fill="#075985"/>
</svg>
