<svg width="40" height="40" viewBox="0 0 40 40" fill="none" xmlns="http://www.w3.org/2000/svg">
<g clip-path="url(#clip0)">
<path d="M22.3936 9.53039V14.0731C22.3936 14.3935 22.6558 14.6533 22.9795 14.6533H28.3657C28.6894 14.6533 28.9517 14.3935 28.9517 14.0731V9.53039C28.9517 9.20997 28.6894 8.9502 28.3657 8.9502H22.9795C22.6558 8.9502 22.3936 9.20997 22.3936 9.53039ZM23.5654 10.1106H27.7798V13.4929H23.5654V10.1106Z" fill="#0369A1"/>
<path d="M6.64307 7.94481H10.1317C10.4553 7.94481 10.7176 7.68504 10.7176 7.36462C10.7176 7.0442 10.4553 6.78442 10.1317 6.78442H6.64307C6.31939 6.78442 6.05713 7.0442 6.05713 7.36462C6.05713 7.68504 6.31947 7.94481 6.64307 7.94481Z" fill="#0369A1"/>
<path d="M6.64307 10.4468H17.0242C17.3478 10.4468 17.6101 10.187 17.6101 9.86657C17.6101 9.54615 17.3478 9.28638 17.0242 9.28638H6.64307C6.31939 9.28638 6.05713 9.54615 6.05713 9.86657C6.05713 10.187 6.31947 10.4468 6.64307 10.4468Z" fill="#0369A1"/>
<path d="M6.64307 12.833H17.0242C17.3478 12.833 17.6101 12.5732 17.6101 12.2528C17.6101 11.9324 17.3478 11.6726 17.0242 11.6726H6.64307C6.31939 11.6726 6.05713 11.9324 6.05713 12.2528C6.05713 12.5732 6.31947 12.833 6.64307 12.833Z" fill="#0369A1"/>
<path d="M6.64307 15.2187H17.0242C17.3478 15.2187 17.6101 14.959 17.6101 14.6385C17.6101 14.3181 17.3478 14.0583 17.0242 14.0583H6.64307C6.31939 14.0583 6.05713 14.3181 6.05713 14.6385C6.05713 14.959 6.31947 15.2187 6.64307 15.2187Z" fill="#0369A1"/>
<path d="M6.64307 17.6047H17.0242C17.3478 17.6047 17.6101 17.345 17.6101 17.0245C17.6101 16.7041 17.3478 16.4443 17.0242 16.4443H6.64307C6.31939 16.4443 6.05713 16.7041 6.05713 17.0245C6.05713 17.345 6.31947 17.6047 6.64307 17.6047Z" fill="#0369A1"/>
<path d="M6.05713 24.9841C6.05713 25.3045 6.31939 25.5642 6.64307 25.5642H17.4156C17.7392 25.5642 18.0015 25.3045 18.0015 24.9841V19.2596C18.0015 18.9392 17.7392 18.6794 17.4156 18.6794H6.64307C6.31939 18.6794 6.05713 18.9392 6.05713 19.2596V24.9841ZM7.229 19.8398H16.8296V24.4039H7.229V19.8398Z" fill="#0369A1"/>
<path d="M30.1094 10.447H33.3609C33.6845 10.447 33.9468 10.1872 33.9468 9.86682C33.9468 9.54639 33.6845 9.28662 33.3609 9.28662H30.1094C29.7858 9.28662 29.5234 9.54639 29.5234 9.86682C29.5234 10.1872 29.7857 10.447 30.1094 10.447Z" fill="#0369A1"/>
<path d="M30.1094 12.833H33.3609C33.6845 12.833 33.9468 12.5732 33.9468 12.2528C33.9468 11.9324 33.6845 11.6726 33.3609 11.6726H30.1094C29.7858 11.6726 29.5234 11.9324 29.5234 12.2528C29.5234 12.5732 29.7857 12.833 30.1094 12.833Z" fill="#0369A1"/>
<path d="M30.1094 15.2187H33.3608C33.6845 15.2187 33.9467 14.959 33.9467 14.6385C33.9467 14.3181 33.6845 14.0583 33.3608 14.0583H30.1094C29.7858 14.0583 29.5234 14.3181 29.5234 14.6385C29.5234 14.959 29.7857 15.2187 30.1094 15.2187Z" fill="#0369A1"/>
<path d="M22.3936 17.0245C22.3936 17.345 22.6558 17.6047 22.9795 17.6047H33.3606C33.6843 17.6047 33.9465 17.345 33.9465 17.0245C33.9465 16.7041 33.6843 16.4443 33.3606 16.4443H22.9795C22.6558 16.4443 22.3936 16.7041 22.3936 17.0245Z" fill="#0369A1"/>
<path d="M33.3606 19.0703H22.9795C22.6558 19.0703 22.3936 19.3301 22.3936 19.6505C22.3936 19.9709 22.6558 20.2307 22.9795 20.2307H33.3606C33.6843 20.2307 33.9465 19.9709 33.9465 19.6505C33.9465 19.3301 33.6842 19.0703 33.3606 19.0703Z" fill="#0369A1"/>
<path d="M33.3606 21.6963H22.9795C22.6558 21.6963 22.3936 21.9561 22.3936 22.2765C22.3936 22.5969 22.6558 22.8567 22.9795 22.8567H33.3606C33.6843 22.8567 33.9465 22.5969 33.9465 22.2765C33.9465 21.9561 33.6842 21.6963 33.3606 21.6963Z" fill="#0369A1"/>
<path d="M33.3606 24.3223H22.9795C22.6558 24.3223 22.3936 24.582 22.3936 24.9025C22.3936 25.2229 22.6558 25.4827 22.9795 25.4827H33.3606C33.6843 25.4827 33.9465 25.2229 33.9465 24.9025C33.9465 24.582 33.6842 24.3223 33.3606 24.3223Z" fill="#0369A1"/>
<path d="M38.0763 5.6781H37.0568V5.13109C37.0568 4.09765 36.2077 3.25684 35.164 3.25684H29.6388C29.3151 3.25684 29.0528 3.51661 29.0528 3.83703C29.0528 4.15745 29.3151 4.41722 29.6388 4.41722H35.164C35.5616 4.41722 35.8849 4.73749 35.8849 5.13109V25.6571V27.5593H23.1052C22.133 27.5593 21.2473 27.9337 20.5875 28.5444V6.91027C20.5875 5.5356 21.717 4.41722 23.1052 4.41722H27.295C27.6187 4.41722 27.8809 4.15745 27.8809 3.83703C27.8809 3.51661 27.6187 3.25684 27.295 3.25684H23.1052C21.8039 3.25684 20.6587 3.928 20.0016 4.93854C19.3445 3.928 18.1993 3.25684 16.8979 3.25684H4.83922C3.79555 3.25684 2.94633 4.09757 2.94633 5.13109V5.6781H1.92367C0.862969 5.6781 0 6.53261 0 7.58291V32.6954C0 33.7457 0.862969 34.6003 1.92367 34.6003H5.65C5.97367 34.6003 6.23594 34.3405 6.23594 34.0201C6.23594 33.6996 5.97367 33.4399 5.65 33.4399H1.92367C1.50914 33.4399 1.17188 33.106 1.17188 32.6954V7.58291C1.17188 7.17244 1.50914 6.83848 1.92367 6.83848H2.94641V21.0287C2.94641 21.3491 3.20867 21.6089 3.53234 21.6089C3.85594 21.6089 4.11828 21.3491 4.11828 21.0287V5.13109C4.11828 4.73749 4.44172 4.41722 4.8393 4.41722H16.898C18.2863 4.41722 19.4158 5.5356 19.4158 6.91027V28.5444C18.7561 27.9337 17.8704 27.5593 16.898 27.5593H4.11828V23.3494C4.11828 23.029 3.85594 22.7692 3.53234 22.7692C3.20867 22.7692 2.94641 23.029 2.94641 23.3494V28.1395V29.5314C2.94641 30.7784 3.97102 31.7929 5.23039 31.7929H20.0016H25.7098V33.4398H7.99375C7.67008 33.4398 7.40781 33.6996 7.40781 34.02C7.40781 34.3404 7.67008 34.6002 7.99375 34.6002H25.7098V35.7706C25.7098 35.9736 25.817 36.1618 25.9923 36.267C26.1677 36.3721 26.3859 36.3787 26.5674 36.2847L28.2313 35.4223L29.8296 36.2806C29.9168 36.3274 30.013 36.3508 30.1089 36.3508C30.2127 36.3508 30.3164 36.3235 30.4086 36.2692C30.5861 36.1645 30.6948 35.9752 30.6948 35.7706V34.6002H38.0763C39.137 34.6002 40 33.7457 40 32.6954V7.58291C40 6.53261 39.137 5.6781 38.0763 5.6781ZM30.6949 28.7198H35.885V29.5315C35.885 30.1386 35.3861 30.6326 34.7729 30.6326H30.695V28.7198H30.6949ZM4.11828 29.5315V28.7198H16.898C18.0845 28.7198 19.0813 29.5369 19.3461 30.6327H5.23039C4.61719 30.6326 4.11828 30.1386 4.11828 29.5315ZM20.6571 30.6326C20.922 29.5369 21.9188 28.7197 23.1052 28.7197H25.7098V30.6326H20.6571ZM29.523 34.796L28.5155 34.255C28.3441 34.1629 28.1373 34.1613 27.9645 34.251L26.8817 34.8121V28.7198H29.523V34.796ZM38.8281 32.6954C38.8281 33.1059 38.4909 33.4399 38.0763 33.4399H30.6948V31.793H34.7727C36.0321 31.793 37.0567 30.7785 37.0567 29.5315V28.1396V25.6572V6.83848H38.0763C38.4909 6.83848 38.828 7.17244 38.828 7.58291V32.6954H38.8281Z" fill="#0369A1"/>
</g>
<defs>
<clipPath id="clip0">
<rect width="40" height="39.6078" fill="white"/>
</clipPath>
</defs>
</svg>
