<svg width="40" height="40" viewBox="0 0 40 40" fill="none" xmlns="http://www.w3.org/2000/svg">
<g clip-path="url(#clip0)">
<path d="M39.9104 20.1778L35.2088 12.6901C35.1016 12.5194 34.9142 12.4158 34.7126 12.4158H30.3866V8.37429C31.6959 8.10304 32.683 6.94155 32.683 5.5539C32.683 3.96569 31.39 2.67358 29.8006 2.67358C28.2124 2.67358 26.9204 3.96569 26.9204 5.5539C26.9204 6.9414 27.9066 8.10272 29.2147 8.37413V12.4158H18.9072C18.5836 12.4158 18.3212 12.6781 18.3212 13.0017C18.3212 13.3253 18.5836 13.5876 18.9072 13.5876H23.0124L27.3461 20.4894L23.0123 27.3933H19.4887V24.2853C19.4887 23.9617 19.2263 23.6994 18.9027 23.6994C18.5791 23.6994 18.3168 23.9617 18.3168 24.2853V27.3933H13.0197L17.1579 20.8009C17.2775 20.6105 17.2775 20.3683 17.1579 20.1778L13.0199 13.5876H16.2032C16.5268 13.5876 16.7891 13.3253 16.7891 13.0017C16.7891 12.6781 16.5268 12.4158 16.2032 12.4158H11.9601H6.83242V8.37421C8.14055 8.1028 9.12672 6.9414 9.12672 5.55397C9.12672 3.96577 7.83461 2.67366 6.24648 2.67366C4.65836 2.67366 3.36625 3.96577 3.36625 5.55397C3.36625 6.94147 4.35242 8.1028 5.66055 8.37421V12.4158H0.586015C0.372812 12.4158 0.176405 12.5316 0.0732804 12.7183C-0.0299227 12.9048 -0.0235946 13.1327 0.0896867 13.3133L4.59351 20.4895L0.0896086 27.668C-0.0236727 27.8485 -0.0300008 28.0764 0.0732023 28.263C0.176405 28.4495 0.372734 28.5653 0.585937 28.5653H3.83469C4.15828 28.5653 4.42062 28.303 4.42062 27.9794C4.42062 27.6558 4.15828 27.3934 3.83469 27.3934H1.64539L5.78172 20.8008C5.90117 20.6104 5.90117 20.3684 5.78172 20.178L1.64562 13.5877H5.66062V15.7148C5.66062 16.0383 5.92297 16.3007 6.24656 16.3007C6.57016 16.3007 6.8325 16.0383 6.8325 15.7148V13.5877H11.6362L15.9699 20.4895L11.6362 27.3934H6.53875C6.21516 27.3934 5.95281 27.6558 5.95281 27.9794C5.95281 28.303 6.21516 28.5653 6.53875 28.5653H18.3168V31.6237C17.0087 31.8953 16.0225 33.0576 16.0225 34.4461C16.0225 36.0343 17.3146 37.3264 18.9027 37.3264C20.4909 37.3264 21.783 36.0343 21.783 34.4461C21.783 33.0576 20.7968 31.8953 19.4887 31.6237V28.5653H34.7126C34.9142 28.5653 35.1016 28.4616 35.2088 28.2908L39.9104 20.8009C40.03 20.6105 40.03 20.3683 39.9104 20.1778ZM28.0923 5.5539C28.0923 4.61186 28.8587 3.84546 29.8007 3.84546C30.7439 3.84546 31.5112 4.61186 31.5112 5.5539C31.5112 6.49593 30.7439 7.26233 29.8007 7.26233C28.8587 7.26241 28.0923 6.49593 28.0923 5.5539ZM4.53812 5.5539C4.53812 4.61186 5.30453 3.84546 6.24648 3.84546C7.18852 3.84546 7.95484 4.61186 7.95484 5.5539C7.95484 6.49593 7.18844 7.26233 6.24648 7.26233C5.30445 7.26241 4.53812 6.49593 4.53812 5.5539ZM20.6111 34.4461C20.6111 35.3881 19.8447 36.1545 18.9027 36.1545C17.9608 36.1545 17.1944 35.3881 17.1944 34.4461C17.1944 33.5028 17.9608 32.7355 18.9027 32.7355C19.8448 32.7354 20.6111 33.5028 20.6111 34.4461ZM34.3886 27.3933H24.3959L28.5341 20.8009C28.6537 20.6105 28.6537 20.3683 28.5341 20.1778L24.3962 13.5876H29.2148V15.7147C29.2148 16.0383 29.4772 16.3006 29.8008 16.3006C30.1244 16.3006 30.3867 16.0383 30.3867 15.7147V13.5876H34.3887L38.7224 20.4894L34.3886 27.3933Z" fill="#0369A1"/>
</g>
<defs>
<clipPath id="clip0">
<rect width="40" height="40" fill="white"/>
</clipPath>
</defs>
</svg>
